<?xml version="1.0" encoding="utf-8" standalone="no"?>
<!DOCTYPE svg PUBLIC "-//W3C//DTD SVG 1.1//EN"
  "http://www.w3.org/Graphics/SVG/1.1/DTD/svg11.dtd">
<!-- Created with matplotlib (http://matplotlib.org/) -->
<svg height="322pt" version="1.1" viewBox="0 0 343 322" width="343pt" xmlns="http://www.w3.org/2000/svg" xmlns:xlink="http://www.w3.org/1999/xlink">
 <defs>
  <style type="text/css">
*{stroke-linecap:butt;stroke-linejoin:round;}
  </style>
 </defs>
 <g id="figure_1">
  <g id="patch_1">
   <path d="M 0 322.71375 
L 343.439375 322.71375 
L 343.439375 0 
L 0 0 
z
" style="fill:#ffffff;"/>
  </g>
  <g id="axes_1">
   <g id="patch_2">
    <path d="M 60.939375 275.3 
L 339.939375 275.3 
L 339.939375 3.5 
L 60.939375 3.5 
z
" style="fill:#ffffff;"/>
   </g>
   <g id="PathCollection_1">
    <defs>
     <path d="M 0 3 
C 0.795609 3 1.55874 2.683901 2.12132 2.12132 
C 2.683901 1.55874 3 0.795609 3 0 
C 3 -0.795609 2.683901 -1.55874 2.12132 -2.12132 
C 1.55874 -2.683901 0.795609 -3 0 -3 
C -0.795609 -3 -1.55874 -2.683901 -2.12132 -2.12132 
C -2.683901 -1.55874 -3 -0.795609 -3 0 
C -3 0.795609 -2.683901 1.55874 -2.12132 2.12132 
C -1.55874 2.683901 -0.795609 3 0 3 
z
" id="me8ddf1e779" style="stroke:#000000;"/>
    </defs>
    <g clip-path="url(#p3eaf6c06eb)">
     <use style="stroke:#000000;" x="84.189375" xlink:href="#me8ddf1e779" y="252.65"/>
     <use style="stroke:#000000;" x="316.689375" xlink:href="#me8ddf1e779" y="252.65"/>
     <use style="stroke:#000000;" x="316.689375" xlink:href="#me8ddf1e779" y="26.15"/>
     <use style="stroke:#000000;" x="84.189375" xlink:href="#me8ddf1e779" y="26.15"/>
     <use style="stroke:#000000;" x="200.439375" xlink:href="#me8ddf1e779" y="252.65"/>
     <use style="stroke:#000000;" x="316.689375" xlink:href="#me8ddf1e779" y="139.4"/>
     <use style="stroke:#000000;" x="200.439375" xlink:href="#me8ddf1e779" y="26.15"/>
     <use style="stroke:#000000;" x="84.189375" xlink:href="#me8ddf1e779" y="139.4"/>
    </g>
   </g>
   <g id="PathCollection_2">
    <defs>
     <path d="M -1.936492 1.936492 
L 1.936492 -1.936492 
M -1.936492 -1.936492 
L 1.936492 1.936492 
" id="m409b85a59e" style="stroke:#000000;stroke-width:1.5;"/>
    </defs>
    <g clip-path="url(#p3eaf6c06eb)">
     <use style="stroke:#000000;stroke-width:1.5;" x="92.039794" xlink:href="#m409b85a59e" y="245.002172"/>
     <use style="stroke:#000000;stroke-width:1.5;" x="123.573784" xlink:href="#m409b85a59e" y="245.002172"/>
     <use style="stroke:#000000;stroke-width:1.5;" x="172.699895" xlink:href="#m409b85a59e" y="245.002172"/>
     <use style="stroke:#000000;stroke-width:1.5;" x="228.178855" xlink:href="#m409b85a59e" y="245.002172"/>
     <use style="stroke:#000000;stroke-width:1.5;" x="277.304966" xlink:href="#m409b85a59e" y="245.002172"/>
     <use style="stroke:#000000;stroke-width:1.5;" x="308.838956" xlink:href="#m409b85a59e" y="245.002172"/>
     <use style="stroke:#000000;stroke-width:1.5;" x="92.039794" xlink:href="#m409b85a59e" y="214.281963"/>
     <use style="stroke:#000000;stroke-width:1.5;" x="123.573784" xlink:href="#m409b85a59e" y="214.281963"/>
     <use style="stroke:#000000;stroke-width:1.5;" x="172.699895" xlink:href="#m409b85a59e" y="214.281963"/>
     <use style="stroke:#000000;stroke-width:1.5;" x="228.178855" xlink:href="#m409b85a59e" y="214.281963"/>
     <use style="stroke:#000000;stroke-width:1.5;" x="277.304966" xlink:href="#m409b85a59e" y="214.281963"/>
     <use style="stroke:#000000;stroke-width:1.5;" x="308.838956" xlink:href="#m409b85a59e" y="214.281963"/>
     <use style="stroke:#000000;stroke-width:1.5;" x="92.039794" xlink:href="#m409b85a59e" y="166.423623"/>
     <use style="stroke:#000000;stroke-width:1.5;" x="123.573784" xlink:href="#m409b85a59e" y="166.423623"/>
     <use style="stroke:#000000;stroke-width:1.5;" x="172.699895" xlink:href="#m409b85a59e" y="166.423623"/>
     <use style="stroke:#000000;stroke-width:1.5;" x="228.178855" xlink:href="#m409b85a59e" y="166.423623"/>
     <use style="stroke:#000000;stroke-width:1.5;" x="277.304966" xlink:href="#m409b85a59e" y="166.423623"/>
     <use style="stroke:#000000;stroke-width:1.5;" x="308.838956" xlink:href="#m409b85a59e" y="166.423623"/>
     <use style="stroke:#000000;stroke-width:1.5;" x="92.039794" xlink:href="#m409b85a59e" y="112.376377"/>
     <use style="stroke:#000000;stroke-width:1.5;" x="123.573784" xlink:href="#m409b85a59e" y="112.376377"/>
     <use style="stroke:#000000;stroke-width:1.5;" x="172.699895" xlink:href="#m409b85a59e" y="112.376377"/>
     <use style="stroke:#000000;stroke-width:1.5;" x="228.178855" xlink:href="#m409b85a59e" y="112.376377"/>
     <use style="stroke:#000000;stroke-width:1.5;" x="277.304966" xlink:href="#m409b85a59e" y="112.376377"/>
     <use style="stroke:#000000;stroke-width:1.5;" x="308.838956" xlink:href="#m409b85a59e" y="112.376377"/>
     <use style="stroke:#000000;stroke-width:1.5;" x="92.039794" xlink:href="#m409b85a59e" y="64.518037"/>
     <use style="stroke:#000000;stroke-width:1.5;" x="123.573784" xlink:href="#m409b85a59e" y="64.518037"/>
     <use style="stroke:#000000;stroke-width:1.5;" x="172.699895" xlink:href="#m409b85a59e" y="64.518037"/>
     <use style="stroke:#000000;stroke-width:1.5;" x="228.178855" xlink:href="#m409b85a59e" y="64.518037"/>
     <use style="stroke:#000000;stroke-width:1.5;" x="277.304966" xlink:href="#m409b85a59e" y="64.518037"/>
     <use style="stroke:#000000;stroke-width:1.5;" x="308.838956" xlink:href="#m409b85a59e" y="64.518037"/>
     <use style="stroke:#000000;stroke-width:1.5;" x="92.039794" xlink:href="#m409b85a59e" y="33.797828"/>
     <use style="stroke:#000000;stroke-width:1.5;" x="123.573784" xlink:href="#m409b85a59e" y="33.797828"/>
     <use style="stroke:#000000;stroke-width:1.5;" x="172.699895" xlink:href="#m409b85a59e" y="33.797828"/>
     <use style="stroke:#000000;stroke-width:1.5;" x="228.178855" xlink:href="#m409b85a59e" y="33.797828"/>
     <use style="stroke:#000000;stroke-width:1.5;" x="277.304966" xlink:href="#m409b85a59e" y="33.797828"/>
     <use style="stroke:#000000;stroke-width:1.5;" x="308.838956" xlink:href="#m409b85a59e" y="33.797828"/>
    </g>
   </g>
   <g id="matplotlib.axis_1">
    <g id="xtick_1">
     <g id="line2d_1">
      <defs>
       <path d="M 0 0 
L 0 3.5 
" id="m023a9ee62f" style="stroke:#000000;stroke-width:0.8;"/>
      </defs>
      <g>
       <use style="stroke:#000000;stroke-width:0.8;" x="84.189375" xlink:href="#m023a9ee62f" y="275.3"/>
      </g>
     </g>
     <g id="text_1">
      <!-- −1.0 -->
      <defs>
       <path d="M 10.59375 35.5 
L 73.1875 35.5 
L 73.1875 27.203125 
L 10.59375 27.203125 
z
" id="DejaVuSans-2212"/>
       <path d="M 12.40625 8.296875 
L 28.515625 8.296875 
L 28.515625 63.921875 
L 10.984375 60.40625 
L 10.984375 69.390625 
L 28.421875 72.90625 
L 38.28125 72.90625 
L 38.28125 8.296875 
L 54.390625 8.296875 
L 54.390625 0 
L 12.40625 0 
z
" id="DejaVuSans-31"/>
       <path d="M 10.6875 12.40625 
L 21 12.40625 
L 21 0 
L 10.6875 0 
z
" id="DejaVuSans-2e"/>
       <path d="M 31.78125 66.40625 
Q 24.171875 66.40625 20.328125 58.90625 
Q 16.5 51.421875 16.5 36.375 
Q 16.5 21.390625 20.328125 13.890625 
Q 24.171875 6.390625 31.78125 6.390625 
Q 39.453125 6.390625 43.28125 13.890625 
Q 47.125 21.390625 47.125 36.375 
Q 47.125 51.421875 43.28125 58.90625 
Q 39.453125 66.40625 31.78125 66.40625 
z
M 31.78125 74.21875 
Q 44.046875 74.21875 50.515625 64.515625 
Q 56.984375 54.828125 56.984375 36.375 
Q 56.984375 17.96875 50.515625 8.265625 
Q 44.046875 -1.421875 31.78125 -1.421875 
Q 19.53125 -1.421875 13.0625 8.265625 
Q 6.59375 17.96875 6.59375 36.375 
Q 6.59375 54.828125 13.0625 64.515625 
Q 19.53125 74.21875 31.78125 74.21875 
z
" id="DejaVuSans-30"/>
      </defs>
      <g transform="translate(69.619687 291.418125)scale(0.12 -0.12)">
       <use xlink:href="#DejaVuSans-2212"/>
       <use x="83.789062" xlink:href="#DejaVuSans-31"/>
       <use x="147.412109" xlink:href="#DejaVuSans-2e"/>
       <use x="179.199219" xlink:href="#DejaVuSans-30"/>
      </g>
     </g>
    </g>
    <g id="xtick_2">
     <g id="line2d_2">
      <g>
       <use style="stroke:#000000;stroke-width:0.8;" x="142.314375" xlink:href="#m023a9ee62f" y="275.3"/>
      </g>
     </g>
     <g id="text_2">
      <!-- −0.5 -->
      <defs>
       <path d="M 10.796875 72.90625 
L 49.515625 72.90625 
L 49.515625 64.59375 
L 19.828125 64.59375 
L 19.828125 46.734375 
Q 21.96875 47.46875 24.109375 47.828125 
Q 26.265625 48.1875 28.421875 48.1875 
Q 40.625 48.1875 47.75 41.5 
Q 54.890625 34.8125 54.890625 23.390625 
Q 54.890625 11.625 47.5625 5.09375 
Q 40.234375 -1.421875 26.90625 -1.421875 
Q 22.3125 -1.421875 17.546875 -0.640625 
Q 12.796875 0.140625 7.71875 1.703125 
L 7.71875 11.625 
Q 12.109375 9.234375 16.796875 8.0625 
Q 21.484375 6.890625 26.703125 6.890625 
Q 35.15625 6.890625 40.078125 11.328125 
Q 45.015625 15.765625 45.015625 23.390625 
Q 45.015625 31 40.078125 35.4375 
Q 35.15625 39.890625 26.703125 39.890625 
Q 22.75 39.890625 18.8125 39.015625 
Q 14.890625 38.140625 10.796875 36.28125 
z
" id="DejaVuSans-35"/>
      </defs>
      <g transform="translate(127.744687 291.418125)scale(0.12 -0.12)">
       <use xlink:href="#DejaVuSans-2212"/>
       <use x="83.789062" xlink:href="#DejaVuSans-30"/>
       <use x="147.412109" xlink:href="#DejaVuSans-2e"/>
       <use x="179.199219" xlink:href="#DejaVuSans-35"/>
      </g>
     </g>
    </g>
    <g id="xtick_3">
     <g id="line2d_3">
      <g>
       <use style="stroke:#000000;stroke-width:0.8;" x="200.439375" xlink:href="#m023a9ee62f" y="275.3"/>
      </g>
     </g>
     <g id="text_3">
      <!-- 0.0 -->
      <g transform="translate(190.8975 291.418125)scale(0.12 -0.12)">
       <use xlink:href="#DejaVuSans-30"/>
       <use x="63.623047" xlink:href="#DejaVuSans-2e"/>
       <use x="95.410156" xlink:href="#DejaVuSans-30"/>
      </g>
     </g>
    </g>
    <g id="xtick_4">
     <g id="line2d_4">
      <g>
       <use style="stroke:#000000;stroke-width:0.8;" x="258.564375" xlink:href="#m023a9ee62f" y="275.3"/>
      </g>
     </g>
     <g id="text_4">
      <!-- 0.5 -->
      <g transform="translate(249.0225 291.418125)scale(0.12 -0.12)">
       <use xlink:href="#DejaVuSans-30"/>
       <use x="63.623047" xlink:href="#DejaVuSans-2e"/>
       <use x="95.410156" xlink:href="#DejaVuSans-35"/>
      </g>
     </g>
    </g>
    <g id="xtick_5">
     <g id="line2d_5">
      <g>
       <use style="stroke:#000000;stroke-width:0.8;" x="316.689375" xlink:href="#m023a9ee62f" y="275.3"/>
      </g>
     </g>
     <g id="text_5">
      <!-- 1.0 -->
      <g transform="translate(307.1475 291.418125)scale(0.12 -0.12)">
       <use xlink:href="#DejaVuSans-31"/>
       <use x="63.623047" xlink:href="#DejaVuSans-2e"/>
       <use x="95.410156" xlink:href="#DejaVuSans-30"/>
      </g>
     </g>
    </g>
    <g id="text_6">
     <!-- $\tilde\xi$ -->
     <defs>
      <path d="M -25.328125 66.890625 
L -28.109375 69.578125 
Q -29.171875 70.5625 -29.984375 71.015625 
Q -30.796875 71.484375 -31.421875 71.484375 
Q -33.28125 71.484375 -34.15625 69.703125 
Q -35.03125 67.921875 -35.140625 63.921875 
L -41.234375 63.921875 
Q -41.140625 70.515625 -38.640625 74.09375 
Q -36.15625 77.6875 -31.71875 77.6875 
Q -29.859375 77.6875 -28.296875 77 
Q -26.734375 76.3125 -24.9375 74.703125 
L -22.140625 72.015625 
Q -21.078125 71.046875 -20.265625 70.578125 
Q -19.46875 70.125 -18.828125 70.125 
Q -16.96875 70.125 -16.09375 71.90625 
Q -15.21875 73.6875 -15.109375 77.6875 
L -9.015625 77.6875 
Q -9.109375 71.09375 -11.59375 67.5 
Q -14.09375 63.921875 -18.53125 63.921875 
Q -20.390625 63.921875 -21.953125 64.59375 
Q -23.515625 65.28125 -25.328125 66.890625 
z
" id="DejaVuSans-303"/>
      <path d="M 31.5 6.203125 
Q 37.9375 6.15625 41.0625 2.484375 
Q 44.4375 -1.375 43.3125 -7.234375 
Q 42.1875 -12.84375 37.84375 -16.75 
Q 33.109375 -21 25.140625 -21 
Q 25.875 -17.328125 26.5625 -13.625 
Q 29.890625 -13.875 32.375 -11.71875 
Q 34.28125 -10.015625 34.625 -8.203125 
Q 35.109375 -5.609375 33.984375 -3.46875 
Q 32.8125 -1.421875 30.03125 -1.421875 
Q -0.390625 -1.421875 3.765625 19.921875 
Q 6.59375 34.578125 23.6875 38.875 
Q 10.359375 40.625 12.84375 53.328125 
Q 14.703125 62.9375 26.21875 66.9375 
L 16.0625 66.9375 
L 17.828125 75.984375 
L 56.34375 75.984375 
L 54.59375 66.9375 
Q 23.875 66.9375 21.09375 52.734375 
Q 19.28125 43.40625 45.015625 42.96875 
L 43.40625 34.671875 
Q 15.765625 35.75 12.796875 19.921875 
Q 10.296875 6.6875 31.5 6.203125 
z
" id="DejaVuSans-Oblique-3be"/>
     </defs>
     <g transform="translate(194.739375 318.51375)scale(0.2 -0.2)">
      <use transform="translate(60.417969 25.3125)" xlink:href="#DejaVuSans-303"/>
      <use transform="translate(0 0.75)" xlink:href="#DejaVuSans-Oblique-3be"/>
     </g>
    </g>
   </g>
   <g id="matplotlib.axis_2">
    <g id="ytick_1">
     <g id="line2d_6">
      <defs>
       <path d="M 0 0 
L -3.5 0 
" id="mabfff43384" style="stroke:#000000;stroke-width:0.8;"/>
      </defs>
      <g>
       <use style="stroke:#000000;stroke-width:0.8;" x="60.939375" xlink:href="#mabfff43384" y="252.65"/>
      </g>
     </g>
     <g id="text_7">
      <!-- −1.0 -->
      <g transform="translate(24.8 257.209063)scale(0.12 -0.12)">
       <use xlink:href="#DejaVuSans-2212"/>
       <use x="83.789062" xlink:href="#DejaVuSans-31"/>
       <use x="147.412109" xlink:href="#DejaVuSans-2e"/>
       <use x="179.199219" xlink:href="#DejaVuSans-30"/>
      </g>
     </g>
    </g>
    <g id="ytick_2">
     <g id="line2d_7">
      <g>
       <use style="stroke:#000000;stroke-width:0.8;" x="60.939375" xlink:href="#mabfff43384" y="196.025"/>
      </g>
     </g>
     <g id="text_8">
      <!-- −0.5 -->
      <g transform="translate(24.8 200.584063)scale(0.12 -0.12)">
       <use xlink:href="#DejaVuSans-2212"/>
       <use x="83.789062" xlink:href="#DejaVuSans-30"/>
       <use x="147.412109" xlink:href="#DejaVuSans-2e"/>
       <use x="179.199219" xlink:href="#DejaVuSans-35"/>
      </g>
     </g>
    </g>
    <g id="ytick_3">
     <g id="line2d_8">
      <g>
       <use style="stroke:#000000;stroke-width:0.8;" x="60.939375" xlink:href="#mabfff43384" y="139.4"/>
      </g>
     </g>
     <g id="text_9">
      <!-- 0.0 -->
      <g transform="translate(34.855625 143.959063)scale(0.12 -0.12)">
       <use xlink:href="#DejaVuSans-30"/>
       <use x="63.623047" xlink:href="#DejaVuSans-2e"/>
       <use x="95.410156" xlink:href="#DejaVuSans-30"/>
      </g>
     </g>
    </g>
    <g id="ytick_4">
     <g id="line2d_9">
      <g>
       <use style="stroke:#000000;stroke-width:0.8;" x="60.939375" xlink:href="#mabfff43384" y="82.775"/>
      </g>
     </g>
     <g id="text_10">
      <!-- 0.5 -->
      <g transform="translate(34.855625 87.334063)scale(0.12 -0.12)">
       <use xlink:href="#DejaVuSans-30"/>
       <use x="63.623047" xlink:href="#DejaVuSans-2e"/>
       <use x="95.410156" xlink:href="#DejaVuSans-35"/>
      </g>
     </g>
    </g>
    <g id="ytick_5">
     <g id="line2d_10">
      <g>
       <use style="stroke:#000000;stroke-width:0.8;" x="60.939375" xlink:href="#mabfff43384" y="26.15"/>
      </g>
     </g>
     <g id="text_11">
      <!-- 1.0 -->
      <g transform="translate(34.855625 30.709062)scale(0.12 -0.12)">
       <use xlink:href="#DejaVuSans-31"/>
       <use x="63.623047" xlink:href="#DejaVuSans-2e"/>
       <use x="95.410156" xlink:href="#DejaVuSans-30"/>
      </g>
     </g>
    </g>
    <g id="text_12">
     <!-- $\tilde\eta$ -->
     <defs>
      <path d="M 57.859375 33.015625 
L 47.40625 -20.796875 
L 38.421875 -20.796875 
L 48.828125 32.71875 
Q 50.34375 40.484375 48.046875 44.34375 
Q 45.796875 48.1875 39.75 48.1875 
Q 32.46875 48.1875 27.34375 43.5625 
Q 22.265625 38.921875 20.703125 30.90625 
L 14.703125 0 
L 5.671875 0 
L 16.3125 54.6875 
L 25.34375 54.6875 
L 23.6875 46.1875 
Q 27.828125 51.125 32.71875 53.5625 
Q 37.546875 56 43.265625 56 
Q 52.6875 56 56.390625 50.203125 
Q 60.0625 44.34375 57.859375 33.015625 
z
" id="DejaVuSans-Oblique-3b7"/>
     </defs>
     <g transform="translate(16.6 145.8)rotate(-90)scale(0.2 -0.2)">
      <use transform="translate(58.832031 5.3125)" xlink:href="#DejaVuSans-303"/>
      <use transform="translate(0 0.734375)" xlink:href="#DejaVuSans-Oblique-3b7"/>
     </g>
    </g>
   </g>
   <g id="line2d_11">
    <path clip-path="url(#p3eaf6c06eb)" d="M 84.189375 252.65 
L 117.403661 252.65 
L 150.617946 252.65 
L 183.832232 252.65 
L 217.046518 252.65 
L 250.260804 252.65 
L 283.475089 252.65 
L 316.689375 252.65 
" style="fill:none;stroke:#000000;stroke-linecap:square;"/>
   </g>
   <g id="line2d_12">
    <path clip-path="url(#p3eaf6c06eb)" d="M 84.189375 252.65 
L 84.189375 220.292857 
L 84.189375 187.935714 
L 84.189375 155.578571 
L 84.189375 123.221429 
L 84.189375 90.864286 
L 84.189375 58.507143 
L 84.189375 26.15 
" style="fill:none;stroke:#000000;stroke-linecap:square;"/>
   </g>
   <g id="line2d_13">
    <path clip-path="url(#p3eaf6c06eb)" d="M 84.189375 26.15 
L 117.403661 26.15 
L 150.617946 26.15 
L 183.832232 26.15 
L 217.046518 26.15 
L 250.260804 26.15 
L 283.475089 26.15 
L 316.689375 26.15 
" style="fill:none;stroke:#000000;stroke-linecap:square;"/>
   </g>
   <g id="line2d_14">
    <path clip-path="url(#p3eaf6c06eb)" d="M 316.689375 252.65 
L 316.689375 220.292857 
L 316.689375 187.935714 
L 316.689375 155.578571 
L 316.689375 123.221429 
L 316.689375 90.864286 
L 316.689375 58.507143 
L 316.689375 26.15 
" style="fill:none;stroke:#000000;stroke-linecap:square;"/>
   </g>
   <g id="line2d_15">
    <path clip-path="url(#p3eaf6c06eb)" d="M 84.189375 220.292857 
L 117.403661 220.292857 
L 150.617946 220.292857 
L 183.832232 220.292857 
L 217.046518 220.292857 
L 250.260804 220.292857 
L 283.475089 220.292857 
L 316.689375 220.292857 
" style="fill:none;stroke:#000000;stroke-linecap:square;stroke-width:0.3;"/>
   </g>
   <g id="line2d_16">
    <path clip-path="url(#p3eaf6c06eb)" d="M 117.403661 252.65 
L 117.403661 220.292857 
L 117.403661 187.935714 
L 117.403661 155.578571 
L 117.403661 123.221429 
L 117.403661 90.864286 
L 117.403661 58.507143 
L 117.403661 26.15 
" style="fill:none;stroke:#000000;stroke-linecap:square;stroke-width:0.3;"/>
   </g>
   <g id="line2d_17">
    <path clip-path="url(#p3eaf6c06eb)" d="M 84.189375 187.935714 
L 117.403661 187.935714 
L 150.617946 187.935714 
L 183.832232 187.935714 
L 217.046518 187.935714 
L 250.260804 187.935714 
L 283.475089 187.935714 
L 316.689375 187.935714 
" style="fill:none;stroke:#000000;stroke-linecap:square;stroke-width:0.3;"/>
   </g>
   <g id="line2d_18">
    <path clip-path="url(#p3eaf6c06eb)" d="M 150.617946 252.65 
L 150.617946 220.292857 
L 150.617946 187.935714 
L 150.617946 155.578571 
L 150.617946 123.221429 
L 150.617946 90.864286 
L 150.617946 58.507143 
L 150.617946 26.15 
" style="fill:none;stroke:#000000;stroke-linecap:square;stroke-width:0.3;"/>
   </g>
   <g id="line2d_19">
    <path clip-path="url(#p3eaf6c06eb)" d="M 84.189375 155.578571 
L 117.403661 155.578571 
L 150.617946 155.578571 
L 183.832232 155.578571 
L 217.046518 155.578571 
L 250.260804 155.578571 
L 283.475089 155.578571 
L 316.689375 155.578571 
" style="fill:none;stroke:#000000;stroke-linecap:square;stroke-width:0.3;"/>
   </g>
   <g id="line2d_20">
    <path clip-path="url(#p3eaf6c06eb)" d="M 183.832232 252.65 
L 183.832232 220.292857 
L 183.832232 187.935714 
L 183.832232 155.578571 
L 183.832232 123.221429 
L 183.832232 90.864286 
L 183.832232 58.507143 
L 183.832232 26.15 
" style="fill:none;stroke:#000000;stroke-linecap:square;stroke-width:0.3;"/>
   </g>
   <g id="line2d_21">
    <path clip-path="url(#p3eaf6c06eb)" d="M 84.189375 123.221429 
L 117.403661 123.221429 
L 150.617946 123.221429 
L 183.832232 123.221429 
L 217.046518 123.221429 
L 250.260804 123.221429 
L 283.475089 123.221429 
L 316.689375 123.221429 
" style="fill:none;stroke:#000000;stroke-linecap:square;stroke-width:0.3;"/>
   </g>
   <g id="line2d_22">
    <path clip-path="url(#p3eaf6c06eb)" d="M 217.046518 252.65 
L 217.046518 220.292857 
L 217.046518 187.935714 
L 217.046518 155.578571 
L 217.046518 123.221429 
L 217.046518 90.864286 
L 217.046518 58.507143 
L 217.046518 26.15 
" style="fill:none;stroke:#000000;stroke-linecap:square;stroke-width:0.3;"/>
   </g>
   <g id="line2d_23">
    <path clip-path="url(#p3eaf6c06eb)" d="M 84.189375 90.864286 
L 117.403661 90.864286 
L 150.617946 90.864286 
L 183.832232 90.864286 
L 217.046518 90.864286 
L 250.260804 90.864286 
L 283.475089 90.864286 
L 316.689375 90.864286 
" style="fill:none;stroke:#000000;stroke-linecap:square;stroke-width:0.3;"/>
   </g>
   <g id="line2d_24">
    <path clip-path="url(#p3eaf6c06eb)" d="M 250.260804 252.65 
L 250.260804 220.292857 
L 250.260804 187.935714 
L 250.260804 155.578571 
L 250.260804 123.221429 
L 250.260804 90.864286 
L 250.260804 58.507143 
L 250.260804 26.15 
" style="fill:none;stroke:#000000;stroke-linecap:square;stroke-width:0.3;"/>
   </g>
   <g id="line2d_25">
    <path clip-path="url(#p3eaf6c06eb)" d="M 84.189375 58.507143 
L 117.403661 58.507143 
L 150.617946 58.507143 
L 183.832232 58.507143 
L 217.046518 58.507143 
L 250.260804 58.507143 
L 283.475089 58.507143 
L 316.689375 58.507143 
" style="fill:none;stroke:#000000;stroke-linecap:square;stroke-width:0.3;"/>
   </g>
   <g id="line2d_26">
    <path clip-path="url(#p3eaf6c06eb)" d="M 283.475089 252.65 
L 283.475089 220.292857 
L 283.475089 187.935714 
L 283.475089 155.578571 
L 283.475089 123.221429 
L 283.475089 90.864286 
L 283.475089 58.507143 
L 283.475089 26.15 
" style="fill:none;stroke:#000000;stroke-linecap:square;stroke-width:0.3;"/>
   </g>
   <g id="patch_3">
    <path d="M 60.939375 275.3 
L 60.939375 3.5 
" style="fill:none;stroke:#000000;stroke-linecap:square;stroke-linejoin:miter;stroke-width:0.8;"/>
   </g>
   <g id="patch_4">
    <path d="M 339.939375 275.3 
L 339.939375 3.5 
" style="fill:none;stroke:#000000;stroke-linecap:square;stroke-linejoin:miter;stroke-width:0.8;"/>
   </g>
   <g id="patch_5">
    <path d="M 60.939375 275.3 
L 339.939375 275.3 
" style="fill:none;stroke:#000000;stroke-linecap:square;stroke-linejoin:miter;stroke-width:0.8;"/>
   </g>
   <g id="patch_6">
    <path d="M 60.939375 3.5 
L 339.939375 3.5 
" style="fill:none;stroke:#000000;stroke-linecap:square;stroke-linejoin:miter;stroke-width:0.8;"/>
   </g>
  </g>
 </g>
 <defs>
  <clipPath id="p3eaf6c06eb">
   <rect height="271.8" width="279" x="60.939375" y="3.5"/>
  </clipPath>
 </defs>
</svg>
