<?xml version="1.0" encoding="utf-8" standalone="no"?>
<!DOCTYPE svg PUBLIC "-//W3C//DTD SVG 1.1//EN"
  "http://www.w3.org/Graphics/SVG/1.1/DTD/svg11.dtd">
<!-- Created with matplotlib (http://matplotlib.org/) -->
<svg height="550pt" version="1.1" viewBox="0 0 514 550" width="514pt" xmlns="http://www.w3.org/2000/svg" xmlns:xlink="http://www.w3.org/1999/xlink">
 <defs>
  <style type="text/css">
*{stroke-linecap:butt;stroke-linejoin:round;}
  </style>
 </defs>
 <g id="figure_1">
  <g id="patch_1">
   <path d="M 0 550.6 
L 514.272727 550.6 
L 514.272727 0 
L 0 0 
z
" style="fill:#ffffff;"/>
  </g>
  <g id="patch_2">
   <path d="M 3.5 547.1 
L 510.772727 547.1 
L 510.772727 3.5 
L 3.5 3.5 
z
" style="fill:#ffffff;"/>
  </g>
  <g id="pane3d_1">
   <g id="patch_3">
    <path d="M 231.696557 333.251531 
L 457.129691 395.117359 
L 464.050752 110.375747 
L 230.601139 61.631764 
" style="fill:none;opacity:0;"/>
   </g>
  </g>
  <g id="pane3d_2">
   <g id="patch_4">
    <path d="M 231.696557 333.251531 
L 66.237183 423.716704 
L 58.975129 132.970221 
L 230.601139 61.631764 
" style="fill:none;opacity:0;"/>
   </g>
  </g>
  <g id="pane3d_3">
   <g id="patch_5">
    <path d="M 231.696557 333.251531 
L 66.237183 423.716704 
L 300.922321 496.154485 
L 457.129691 395.117359 
" style="fill:none;opacity:0;"/>
   </g>
  </g>
  <g id="axis3d_1">
   <g id="line2d_1">
    <path d="M 457.129691 395.117359 
L 300.922321 496.154485 
" style="fill:none;stroke:#000000;stroke-linecap:square;stroke-width:0.8;"/>
   </g>
   <g id="text_1">
    <!-- $\xi$ -->
    <defs>
     <path d="M 31.5 6.203125 
Q 37.9375 6.15625 41.0625 2.484375 
Q 44.4375 -1.375 43.3125 -7.234375 
Q 42.1875 -12.84375 37.84375 -16.75 
Q 33.109375 -21 25.140625 -21 
Q 25.875 -17.328125 26.5625 -13.625 
Q 29.890625 -13.875 32.375 -11.71875 
Q 34.28125 -10.015625 34.625 -8.203125 
Q 35.109375 -5.609375 33.984375 -3.46875 
Q 32.8125 -1.421875 30.03125 -1.421875 
Q -0.390625 -1.421875 3.765625 19.921875 
Q 6.59375 34.578125 23.6875 38.875 
Q 10.359375 40.625 12.84375 53.328125 
Q 14.703125 62.9375 26.21875 66.9375 
L 16.0625 66.9375 
L 17.828125 75.984375 
L 56.34375 75.984375 
L 54.59375 66.9375 
Q 23.875 66.9375 21.09375 52.734375 
Q 19.28125 43.40625 45.015625 42.96875 
L 43.40625 34.671875 
Q 15.765625 35.75 12.796875 19.921875 
Q 10.296875 6.6875 31.5 6.203125 
z
" id="DejaVuSans-Oblique-3be"/>
    </defs>
    <g transform="translate(372.625105 439.585106)rotate(-32.895358)scale(0.2 -0.2)">
     <use transform="translate(0 0.015625)" xlink:href="#DejaVuSans-Oblique-3be"/>
    </g>
   </g>
   <g id="Line3DCollection_1">
    <path d="M 442.612146 404.507511 
L 216.25829 341.692427 
L 214.626763 68.271709 
" style="fill:none;"/>
    <path d="M 382.189732 443.589579 
L 152.138089 376.750248 
L 148.193546 95.885491 
" style="fill:none;"/>
    <path d="M 317.720143 485.289417 
L 83.960876 414.026247 
L 77.403875 125.310087 
" style="fill:none;"/>
   </g>
   <g id="xtick_1">
    <g id="line2d_2">
     <path d="M 440.702657 403.977612 
L 446.436164 405.568708 
" style="fill:none;stroke:#000000;stroke-linecap:square;stroke-width:0.8;"/>
    </g>
    <g id="text_2">
     <!-- −1 -->
     <defs>
      <path d="M 10.59375 35.5 
L 73.1875 35.5 
L 73.1875 27.203125 
L 10.59375 27.203125 
z
" id="DejaVuSans-2212"/>
      <path d="M 12.40625 8.296875 
L 28.515625 8.296875 
L 28.515625 63.921875 
L 10.984375 60.40625 
L 10.984375 69.390625 
L 28.421875 72.90625 
L 38.28125 72.90625 
L 38.28125 8.296875 
L 54.390625 8.296875 
L 54.390625 0 
L 12.40625 0 
z
" id="DejaVuSans-31"/>
     </defs>
     <g transform="translate(439.125249 432.60995)scale(0.18 -0.18)">
      <use xlink:href="#DejaVuSans-2212"/>
      <use x="83.789062" xlink:href="#DejaVuSans-31"/>
     </g>
    </g>
   </g>
   <g id="xtick_2">
    <g id="line2d_3">
     <path d="M 380.245801 443.024789 
L 386.082891 444.7207 
" style="fill:none;stroke:#000000;stroke-linecap:square;stroke-width:0.8;"/>
    </g>
    <g id="text_3">
     <!-- 0 -->
     <defs>
      <path d="M 31.78125 66.40625 
Q 24.171875 66.40625 20.328125 58.90625 
Q 16.5 51.421875 16.5 36.375 
Q 16.5 21.390625 20.328125 13.890625 
Q 24.171875 6.390625 31.78125 6.390625 
Q 39.453125 6.390625 43.28125 13.890625 
Q 47.125 21.390625 47.125 36.375 
Q 47.125 51.421875 43.28125 58.90625 
Q 39.453125 66.40625 31.78125 66.40625 
z
M 31.78125 74.21875 
Q 44.046875 74.21875 50.515625 64.515625 
Q 56.984375 54.828125 56.984375 36.375 
Q 56.984375 17.96875 50.515625 8.265625 
Q 44.046875 -1.421875 31.78125 -1.421875 
Q 19.53125 -1.421875 13.0625 8.265625 
Q 6.59375 17.96875 6.59375 36.375 
Q 6.59375 54.828125 13.0625 64.515625 
Q 19.53125 74.21875 31.78125 74.21875 
z
" id="DejaVuSans-30"/>
     </defs>
     <g transform="translate(386.509109 472.193957)scale(0.18 -0.18)">
      <use xlink:href="#DejaVuSans-30"/>
     </g>
    </g>
   </g>
   <g id="xtick_3">
    <g id="line2d_4">
     <path d="M 315.741362 484.686172 
L 321.683279 486.497607 
" style="fill:none;stroke:#000000;stroke-linecap:square;stroke-width:0.8;"/>
    </g>
    <g id="text_4">
     <!-- 1 -->
     <g transform="translate(322.318164 514.431742)scale(0.18 -0.18)">
      <use xlink:href="#DejaVuSans-31"/>
     </g>
    </g>
   </g>
  </g>
  <g id="axis3d_2">
   <g id="line2d_5">
    <path d="M 66.237183 423.716704 
L 300.922321 496.154485 
" style="fill:none;stroke:#000000;stroke-linecap:square;stroke-width:0.8;"/>
   </g>
   <g id="text_5">
    <!-- $\eta$ -->
    <defs>
     <path d="M 57.859375 33.015625 
L 47.40625 -20.796875 
L 38.421875 -20.796875 
L 48.828125 32.71875 
Q 50.34375 40.484375 48.046875 44.34375 
Q 45.796875 48.1875 39.75 48.1875 
Q 32.46875 48.1875 27.34375 43.5625 
Q 22.265625 38.921875 20.703125 30.90625 
L 14.703125 0 
L 5.671875 0 
L 16.3125 54.6875 
L 25.34375 54.6875 
L 23.6875 46.1875 
Q 27.828125 51.125 32.71875 53.5625 
Q 37.546875 56 43.265625 56 
Q 52.6875 56 56.390625 50.203125 
Q 60.0625 44.34375 57.859375 33.015625 
z
" id="DejaVuSans-Oblique-3b7"/>
    </defs>
    <g transform="translate(178.107366 449.416672)rotate(-342.846665)scale(0.2 -0.2)">
     <use xlink:href="#DejaVuSans-Oblique-3b7"/>
    </g>
   </g>
   <g id="Line3DCollection_2">
    <path d="M 252.816993 66.270406 
L 253.185491 339.14876 
L 88.520049 430.594521 
" style="fill:none;"/>
    <path d="M 344.120634 85.334491 
L 341.422119 363.363621 
L 180.210636 458.895685 
" style="fill:none;"/>
    <path d="M 439.525959 105.255002 
L 433.486262 388.62887 
L 276.212411 488.527538 
" style="fill:none;"/>
   </g>
   <g id="xtick_4">
    <g id="line2d_6">
     <path d="M 89.942068 429.804813 
L 85.670533 432.176979 
" style="fill:none;stroke:#000000;stroke-linecap:square;stroke-width:0.8;"/>
    </g>
    <g id="text_6">
     <!-- −1 -->
     <g transform="translate(68.026874 460.293413)scale(0.18 -0.18)">
      <use xlink:href="#DejaVuSans-2212"/>
      <use x="83.789062" xlink:href="#DejaVuSans-31"/>
     </g>
    </g>
   </g>
   <g id="xtick_5">
    <g id="line2d_7">
     <path d="M 181.60518 458.069295 
L 177.416052 460.551724 
" style="fill:none;stroke:#000000;stroke-linecap:square;stroke-width:0.8;"/>
    </g>
    <g id="text_7">
     <!-- 0 -->
     <g transform="translate(167.268824 489.017593)scale(0.18 -0.18)">
      <use xlink:href="#DejaVuSans-30"/>
     </g>
    </g>
   </g>
   <g id="xtick_6">
    <g id="line2d_8">
     <path d="M 277.575296 487.661849 
L 273.481143 490.262411 
" style="fill:none;stroke:#000000;stroke-linecap:square;stroke-width:0.8;"/>
    </g>
    <g id="text_8">
     <!-- 1 -->
     <g transform="translate(263.289164 519.095004)scale(0.18 -0.18)">
      <use xlink:href="#DejaVuSans-31"/>
     </g>
    </g>
   </g>
  </g>
  <g id="axis3d_3">
   <g id="line2d_9">
    <path d="M 66.237183 423.716704 
L 58.975129 132.970221 
" style="fill:none;stroke:#000000;stroke-linecap:square;stroke-width:0.8;"/>
   </g>
   <g id="text_9">
    <!-- $\zeta$ -->
    <defs>
     <path d="M 30.71875 6.203125 
Q 37.15625 6.15625 40.28125 2.484375 
Q 43.65625 -1.375 42.53125 -7.234375 
Q 41.40625 -12.84375 37.0625 -16.75 
Q 32.328125 -21 24.359375 -21 
Q 25.09375 -17.328125 25.78125 -13.625 
Q 29.109375 -13.875 31.59375 -11.71875 
Q 33.5 -10.015625 33.84375 -8.203125 
Q 34.328125 -5.609375 33.203125 -3.46875 
Q 32.03125 -1.421875 29.25 -1.421875 
Q -0.34375 -1.421875 4.9375 26.078125 
Q 9.625 50.09375 40.765625 66.9375 
L 14.796875 66.9375 
L 16.546875 75.984375 
L 59.03125 75.984375 
L 57.28125 66.9375 
Q 18.453125 49.171875 13.96875 26.078125 
Q 10.109375 6.203125 30.71875 6.203125 
z
" id="DejaVuSans-Oblique-3b6"/>
    </defs>
    <g transform="translate(70.427966 274.738155)rotate(-271.430795)scale(0.2 -0.2)">
     <use transform="translate(0 0.015625)" xlink:href="#DejaVuSans-Oblique-3b6"/>
    </g>
   </g>
   <g id="Line3DCollection_3">
    <path d="M 65.534211 395.57224 
L 231.59026 306.894174 
L 457.800173 367.532834 
" style="fill:none;"/>
    <path d="M 62.671624 280.964579 
L 231.157982 199.706522 
L 460.529309 255.252563 
" style="fill:none;"/>
    <path d="M 59.725248 163.002281 
L 230.714014 89.62012 
L 463.336404 139.764957 
" style="fill:none;"/>
   </g>
   <g id="xtick_7">
    <g id="line2d_10">
     <path d="M 66.968023 394.806549 
L 62.661075 397.106567 
" style="fill:none;stroke:#000000;stroke-linecap:square;stroke-width:0.8;"/>
    </g>
    <g id="text_10">
     <!-- −1 -->
     <g transform="translate(35.36997 410.457184)scale(0.18 -0.18)">
      <use xlink:href="#DejaVuSans-2212"/>
      <use x="83.789062" xlink:href="#DejaVuSans-31"/>
     </g>
    </g>
   </g>
   <g id="xtick_8">
    <g id="line2d_11">
     <path d="M 64.127962 280.262213 
L 59.753269 282.372051 
" style="fill:none;stroke:#000000;stroke-linecap:square;stroke-width:0.8;"/>
    </g>
    <g id="text_11">
     <!-- 0 -->
     <g transform="translate(39.802207 295.749664)scale(0.18 -0.18)">
      <use xlink:href="#DejaVuSans-30"/>
     </g>
    </g>
   </g>
   <g id="xtick_9">
    <g id="line2d_12">
     <path d="M 61.204824 162.367301 
L 56.760238 164.274756 
" style="fill:none;stroke:#000000;stroke-linecap:square;stroke-width:0.8;"/>
    </g>
    <g id="text_12">
     <!-- 1 -->
     <g transform="translate(36.601615 177.681098)scale(0.18 -0.18)">
      <use xlink:href="#DejaVuSans-31"/>
     </g>
    </g>
   </g>
  </g>
  <g id="axes_1">
   <g id="Path3DCollection_1">
    <defs>
     <path d="M 0 3.535534 
C 0.937635 3.535534 1.836992 3.163008 2.5 2.5 
C 3.163008 1.836992 3.535534 0.937635 3.535534 0 
C 3.535534 -0.937635 3.163008 -1.836992 2.5 -2.5 
C 1.836992 -3.163008 0.937635 -3.535534 0 -3.535534 
C -0.937635 -3.535534 -1.836992 -3.163008 -2.5 -2.5 
C -3.163008 -1.836992 -3.535534 -0.937635 -3.535534 0 
C -3.535534 0.937635 -3.163008 1.836992 -2.5 2.5 
C -1.836992 3.163008 -0.937635 3.535534 0 3.535534 
z
" id="m3571097f12" style="stroke:#000000;"/>
    </defs>
    <g clip-path="url(#pca6e7ef18e)">
     <use style="stroke:#000000;" x="105.605531" xlink:href="#m3571097f12" y="392.707918"/>
     <use style="stroke:#000000;" x="293.226135" xlink:href="#m3571097f12" y="448.598865"/>
     <use style="stroke:#000000;" x="237.739858" xlink:href="#m3571097f12" y="321.032481"/>
     <use style="stroke:#000000;" x="419.402434" xlink:href="#m3571097f12" y="370.277527"/>
     <use style="stroke:#000000;" x="100.980896" xlink:href="#m3571097f12" y="160.627048"/>
     <use style="stroke:#000000;" x="294.120919" xlink:href="#m3571097f12" y="207.034684"/>
     <use style="stroke:#000000;" x="237.020616" xlink:href="#m3571097f12" y="101.298453"/>
     <use style="stroke:#000000;" x="423.852538" xlink:href="#m3571097f12" y="142.038183"/>
     <use style="stroke:#000000;" x="197.270838" xlink:href="#m3571097f12" y="420.014412"/>
     <use style="stroke:#000000;" x="326.621592" xlink:href="#m3571097f12" y="345.126519"/>
     <use style="stroke:#000000;" x="173.716634" xlink:href="#m3571097f12" y="355.761477"/>
     <use style="stroke:#000000;" x="358.354452" xlink:href="#m3571097f12" y="408.171804"/>
     <use style="stroke:#000000;" x="195.27682" xlink:href="#m3571097f12" y="183.284449"/>
     <use style="stroke:#000000;" x="328.375401" xlink:href="#m3571097f12" y="121.218867"/>
     <use style="stroke:#000000;" x="171.164596" xlink:href="#m3571097f12" y="130.019073"/>
     <use style="stroke:#000000;" x="361.146448" xlink:href="#m3571097f12" y="173.454399"/>
     <use style="stroke:#000000;" x="103.326486" xlink:href="#m3571097f12" y="278.337211"/>
     <use style="stroke:#000000;" x="293.666784" xlink:href="#m3571097f12" y="329.637295"/>
     <use style="stroke:#000000;" x="237.385097" xlink:href="#m3571097f12" y="212.6502"/>
     <use style="stroke:#000000;" x="421.596079" xlink:href="#m3571097f12" y="257.768668"/>
    </g>
   </g>
   <g id="line2d_13">
    <path clip-path="url(#pca6e7ef18e)" d="M 237.739858 321.032481 
L 237.599095 278.028262 
L 237.456814 234.560372 
L 237.312991 190.621271 
L 237.1676 146.203256 
L 237.020616 101.298453 
" style="fill:none;stroke:#000000;stroke-dasharray:6.4,1.6,1,1.6;stroke-dashoffset:0;"/>
   </g>
   <g id="line2d_14">
    <path clip-path="url(#pca6e7ef18e)" d="M 237.739858 321.032481 
L 272.840522 330.54756 
L 308.541316 340.225323 
L 344.857763 350.069976 
L 381.805926 360.085875 
L 419.402434 370.277527 
" style="fill:none;stroke:#000000;stroke-dasharray:6.4,1.6,1,1.6;stroke-dashoffset:0;"/>
   </g>
   <g id="line2d_15">
    <path clip-path="url(#pca6e7ef18e)" d="M 237.739858 321.032481 
L 212.597274 334.670917 
L 186.836243 348.644828 
L 160.43366 362.966743 
L 133.365259 377.649828 
L 105.605531 392.707918 
" style="fill:none;stroke:#000000;stroke-dasharray:6.4,1.6,1,1.6;stroke-dashoffset:0;"/>
   </g>
   <g id="line2d_16">
    <path clip-path="url(#pca6e7ef18e)" d="M 212.597274 334.670917 
L 212.318328 291.215411 
L 212.036338 247.285614 
L 211.751252 202.873717 
L 211.463021 157.971742 
L 211.171592 112.57153 
" style="fill:none;stroke:#000000;stroke-linecap:square;stroke-width:0.1;"/>
   </g>
   <g id="line2d_17">
    <path clip-path="url(#pca6e7ef18e)" d="M 212.597274 334.670917 
L 247.912324 344.41961 
L 283.838632 354.33704 
L 320.392205 364.427627 
L 357.589617 374.695944 
L 395.448029 385.146731 
" style="fill:none;stroke:#000000;stroke-linecap:square;stroke-width:0.1;"/>
   </g>
   <g id="line2d_18">
    <path clip-path="url(#pca6e7ef18e)" d="M 237.599095 278.028262 
L 212.318328 291.215411 
L 186.412298 304.728716 
L 159.857516 318.580427 
L 132.629304 332.783418 
L 104.701716 347.351223 
" style="fill:none;stroke:#000000;stroke-linecap:square;stroke-width:0.1;"/>
   </g>
   <g id="line2d_19">
    <path clip-path="url(#pca6e7ef18e)" d="M 186.836243 348.644828 
L 186.412298 304.728716 
L 185.983668 260.327325 
L 185.550275 215.432567 
L 185.11204 170.036173 
L 184.668881 124.129688 
" style="fill:none;stroke:#000000;stroke-linecap:square;stroke-width:0.1;"/>
   </g>
   <g id="line2d_20">
    <path clip-path="url(#pca6e7ef18e)" d="M 186.836243 348.644828 
L 222.365625 358.635844 
L 258.51767 368.801957 
L 295.308892 379.147808 
L 332.756392 389.678208 
L 370.877889 400.398139 
" style="fill:none;stroke:#000000;stroke-linecap:square;stroke-width:0.1;"/>
   </g>
   <g id="line2d_21">
    <path clip-path="url(#pca6e7ef18e)" d="M 237.456814 234.560372 
L 212.036338 247.285614 
L 185.983668 260.327325 
L 159.274925 273.697461 
L 131.885009 287.408585 
L 103.787526 301.47391 
" style="fill:none;stroke:#000000;stroke-linecap:square;stroke-width:0.1;"/>
   </g>
   <g id="line2d_22">
    <path clip-path="url(#pca6e7ef18e)" d="M 160.43366 362.966743 
L 159.857516 318.580427 
L 159.274925 273.697461 
L 158.685778 228.309461 
L 158.089965 182.407857 
L 157.487371 135.983879 
" style="fill:none;stroke:#000000;stroke-linecap:square;stroke-width:0.1;"/>
   </g>
   <g id="line2d_23">
    <path clip-path="url(#pca6e7ef18e)" d="M 160.43366 362.966743 
L 196.177116 373.209232 
L 232.554926 383.633499 
L 269.584127 394.244426 
L 307.282374 405.047072 
L 345.667965 416.04668 
" style="fill:none;stroke:#000000;stroke-linecap:square;stroke-width:0.1;"/>
   </g>
   <g id="line2d_24">
    <path clip-path="url(#pca6e7ef18e)" d="M 237.312991 190.621271 
L 211.751252 202.873717 
L 185.550275 215.432567 
L 158.685778 228.309461 
L 131.132232 241.516635 
L 102.862783 255.066962 
" style="fill:none;stroke:#000000;stroke-linecap:square;stroke-width:0.1;"/>
   </g>
   <g id="line2d_25">
    <path clip-path="url(#pca6e7ef18e)" d="M 133.365259 377.649828 
L 132.629304 332.783418 
L 131.885009 287.408585 
L 131.132232 241.516635 
L 130.370827 195.09868 
L 129.600645 148.145623 
" style="fill:none;stroke:#000000;stroke-linecap:square;stroke-width:0.1;"/>
   </g>
   <g id="line2d_26">
    <path clip-path="url(#pca6e7ef18e)" d="M 133.365259 377.649828 
L 169.322305 388.153405 
L 205.925686 398.845786 
L 243.192987 409.732108 
L 281.142437 420.817695 
L 319.792938 432.10807 
" style="fill:none;stroke:#000000;stroke-linecap:square;stroke-width:0.1;"/>
   </g>
   <g id="line2d_27">
    <path clip-path="url(#pca6e7ef18e)" d="M 237.1676 146.203256 
L 211.463021 157.971742 
L 185.11204 170.036173 
L 158.089965 182.407857 
L 130.370827 195.09868 
L 101.927302 208.121154 
" style="fill:none;stroke:#000000;stroke-linecap:square;stroke-width:0.1;"/>
   </g>
   <g id="line2d_28">
    <path clip-path="url(#pca6e7ef18e)" d="M 105.605531 392.707918 
L 104.701716 347.351223 
L 103.787526 301.47391 
L 102.862783 255.066962 
L 101.927302 208.121154 
L 100.980896 160.627048 
" style="fill:none;stroke:#000000;stroke-linecap:square;stroke-width:2;"/>
   </g>
   <g id="line2d_29">
    <path clip-path="url(#pca6e7ef18e)" d="M 105.605531 392.707918 
L 141.775434 403.482695 
L 178.603951 414.453669 
L 216.109238 425.626248 
L 254.310122 437.00604 
L 293.226135 448.598865 
" style="fill:none;stroke:#000000;stroke-linecap:square;stroke-width:2;"/>
   </g>
   <g id="line2d_30">
    <path clip-path="url(#pca6e7ef18e)" d="M 237.020616 101.298453 
L 211.171592 112.57153 
L 184.668881 124.129688 
L 157.487371 135.983879 
L 129.600645 148.145623 
L 100.980896 160.627048 
" style="fill:none;stroke:#000000;stroke-linecap:square;stroke-width:2;"/>
   </g>
   <g id="line2d_31">
    <path clip-path="url(#pca6e7ef18e)" d="M 272.840522 330.54756 
L 272.888377 287.228312 
L 272.936751 243.437994 
L 272.985655 199.168881 
L 273.035096 154.413076 
L 273.085083 109.162509 
" style="fill:none;stroke:#000000;stroke-linecap:square;stroke-width:0.1;"/>
   </g>
   <g id="line2d_32">
    <path clip-path="url(#pca6e7ef18e)" d="M 237.599095 278.028262 
L 272.888377 287.228312 
L 308.784303 296.586517 
L 345.302654 306.10699 
L 382.459758 315.793989 
L 420.272523 325.651921 
" style="fill:none;stroke:#000000;stroke-linecap:square;stroke-width:0.1;"/>
   </g>
   <g id="line2d_33">
    <path clip-path="url(#pca6e7ef18e)" d="M 272.840522 330.54756 
L 247.912324 344.41961 
L 222.365625 358.635844 
L 196.177116 373.209232 
L 169.322305 388.153405 
L 141.775434 403.482695 
" style="fill:none;stroke:#000000;stroke-linecap:square;stroke-width:0.1;"/>
   </g>
   <g id="line2d_34">
    <path clip-path="url(#pca6e7ef18e)" d="M 141.775434 403.482695 
L 141.07169 357.776465 
L 140.359796 311.540815 
L 139.639607 264.766494 
L 138.910979 217.444033 
L 138.173761 169.56374 
" style="fill:none;stroke:#000000;stroke-linecap:square;stroke-width:0.3;"/>
   </g>
   <g id="line2d_35">
    <path clip-path="url(#pca6e7ef18e)" d="M 104.701716 347.351223 
L 141.07169 357.776465 
L 178.107772 368.392641 
L 215.828427 379.205047 
L 254.252815 390.219174 
L 293.400815 401.44072 
" style="fill:none;stroke:#000000;stroke-linecap:square;stroke-width:0.3;"/>
   </g>
   <g id="line2d_36">
    <path clip-path="url(#pca6e7ef18e)" d="M 273.085083 109.162509 
L 247.462354 120.634077 
L 221.185872 132.398337 
L 194.230296 144.466634 
L 166.568955 156.850911 
L 138.173761 169.56374 
" style="fill:none;stroke:#000000;stroke-linecap:square;stroke-width:0.3;"/>
   </g>
   <g id="line2d_37">
    <path clip-path="url(#pca6e7ef18e)" d="M 308.541316 340.225323 
L 308.784303 296.586517 
L 309.029956 252.469066 
L 309.278317 207.86505 
L 309.529433 162.766375 
L 309.783349 117.164768 
" style="fill:none;stroke:#000000;stroke-linecap:square;stroke-width:0.1;"/>
   </g>
   <g id="line2d_38">
    <path clip-path="url(#pca6e7ef18e)" d="M 237.456814 234.560372 
L 272.936751 243.437994 
L 309.029956 252.469066 
L 345.752467 261.657599 
L 383.120887 271.007749 
L 421.15241 280.523817 
" style="fill:none;stroke:#000000;stroke-linecap:square;stroke-width:0.1;"/>
   </g>
   <g id="line2d_39">
    <path clip-path="url(#pca6e7ef18e)" d="M 308.541316 340.225323 
L 283.838632 354.33704 
L 258.51767 368.801957 
L 232.554926 383.633499 
L 205.925686 398.845786 
L 178.603951 414.453669 
" style="fill:none;stroke:#000000;stroke-linecap:square;stroke-width:0.1;"/>
   </g>
   <g id="line2d_40">
    <path clip-path="url(#pca6e7ef18e)" d="M 178.603951 414.453669 
L 178.107772 368.392641 
L 177.605791 321.79317 
L 177.097909 274.64576 
L 176.584019 226.940687 
L 176.064014 178.668001 
" style="fill:none;stroke:#000000;stroke-linecap:square;stroke-width:0.3;"/>
   </g>
   <g id="line2d_41">
    <path clip-path="url(#pca6e7ef18e)" d="M 103.787526 301.47391 
L 140.359796 311.540815 
L 177.605791 321.79317 
L 215.544303 332.236148 
L 254.194826 342.875115 
L 293.577595 353.71564 
" style="fill:none;stroke:#000000;stroke-linecap:square;stroke-width:0.3;"/>
   </g>
   <g id="line2d_42">
    <path clip-path="url(#pca6e7ef18e)" d="M 309.783349 117.164768 
L 284.398996 128.840116 
L 258.361136 140.81604 
L 231.644204 153.104298 
L 204.221283 165.717271 
L 176.064014 178.668001 
" style="fill:none;stroke:#000000;stroke-linecap:square;stroke-width:0.3;"/>
   </g>
   <g id="line2d_43">
    <path clip-path="url(#pca6e7ef18e)" d="M 344.857763 350.069976 
L 345.302654 306.10699 
L 345.752467 261.657599 
L 346.207284 216.713685 
L 346.66719 171.266949 
L 347.13227 125.308906 
" style="fill:none;stroke:#000000;stroke-linecap:square;stroke-width:0.1;"/>
   </g>
   <g id="line2d_44">
    <path clip-path="url(#pca6e7ef18e)" d="M 237.312991 190.621271 
L 272.985655 199.168881 
L 309.278317 207.86505 
L 346.207284 216.713685 
L 383.789437 225.718831 
L 422.042261 234.884679 
" style="fill:none;stroke:#000000;stroke-linecap:square;stroke-width:0.1;"/>
   </g>
   <g id="line2d_45">
    <path clip-path="url(#pca6e7ef18e)" d="M 344.857763 350.069976 
L 320.392205 364.427627 
L 295.308892 379.147808 
L 269.584127 394.244426 
L 243.192987 409.732108 
L 216.109238 425.626248 
" style="fill:none;stroke:#000000;stroke-linecap:square;stroke-width:0.1;"/>
   </g>
   <g id="line2d_46">
    <path clip-path="url(#pca6e7ef18e)" d="M 216.109238 425.626248 
L 215.828427 379.205047 
L 215.544303 332.236148 
L 215.256807 284.709801 
L 214.965878 236.616021 
L 214.671455 187.944587 
" style="fill:none;stroke:#000000;stroke-linecap:square;stroke-width:0.3;"/>
   </g>
   <g id="line2d_47">
    <path clip-path="url(#pca6e7ef18e)" d="M 102.862783 255.066962 
L 139.639607 264.766494 
L 177.097909 274.64576 
L 215.256807 284.709801 
L 254.136142 294.96385 
L 293.756512 305.413341 
" style="fill:none;stroke:#000000;stroke-linecap:square;stroke-width:0.3;"/>
   </g>
   <g id="line2d_48">
    <path clip-path="url(#pca6e7ef18e)" d="M 347.13227 125.308906 
L 321.998917 137.193513 
L 296.212634 149.386865 
L 269.747643 161.901152 
L 242.57679 174.749215 
L 214.671455 187.944587 
" style="fill:none;stroke:#000000;stroke-linecap:square;stroke-width:0.3;"/>
   </g>
   <g id="line2d_49">
    <path clip-path="url(#pca6e7ef18e)" d="M 381.805926 360.085875 
L 382.459758 315.793989 
L 383.120887 271.007749 
L 383.789437 225.718831 
L 384.465533 179.918726 
L 385.149303 133.59873 
" style="fill:none;stroke:#000000;stroke-linecap:square;stroke-width:0.1;"/>
   </g>
   <g id="line2d_50">
    <path clip-path="url(#pca6e7ef18e)" d="M 237.1676 146.203256 
L 273.035096 154.413076 
L 309.529433 162.766375 
L 346.66719 171.266949 
L 384.465533 179.918726 
L 422.942245 188.725778 
" style="fill:none;stroke:#000000;stroke-linecap:square;stroke-width:0.1;"/>
   </g>
   <g id="line2d_51">
    <path clip-path="url(#pca6e7ef18e)" d="M 381.805926 360.085875 
L 357.589617 374.695944 
L 332.756392 389.678208 
L 307.282374 405.047072 
L 281.142437 420.817695 
L 254.310122 437.00604 
" style="fill:none;stroke:#000000;stroke-linecap:square;stroke-width:0.1;"/>
   </g>
   <g id="line2d_52">
    <path clip-path="url(#pca6e7ef18e)" d="M 254.310122 437.00604 
L 254.252815 390.219174 
L 254.194826 342.875115 
L 254.136142 294.96385 
L 254.076751 246.475126 
L 254.01664 197.398438 
" style="fill:none;stroke:#000000;stroke-linecap:square;stroke-width:0.3;"/>
   </g>
   <g id="line2d_53">
    <path clip-path="url(#pca6e7ef18e)" d="M 101.927302 208.121154 
L 138.910979 217.444033 
L 176.584019 226.940687 
L 214.965878 236.616021 
L 254.076751 246.475126 
L 293.937607 256.523287 
" style="fill:none;stroke:#000000;stroke-linecap:square;stroke-width:0.3;"/>
   </g>
   <g id="line2d_54">
    <path clip-path="url(#pca6e7ef18e)" d="M 385.149303 133.59873 
L 360.280143 145.698271 
L 334.758987 158.115028 
L 308.559853 170.861639 
L 281.655362 183.951426 
L 254.01664 197.398438 
" style="fill:none;stroke:#000000;stroke-linecap:square;stroke-width:0.3;"/>
   </g>
   <g id="line2d_55">
    <path clip-path="url(#pca6e7ef18e)" d="M 419.402434 370.277527 
L 420.272523 325.651921 
L 421.15241 280.523817 
L 422.042261 234.884679 
L 422.942245 188.725778 
L 423.852538 142.038183 
" style="fill:none;stroke:#000000;stroke-linecap:square;stroke-width:2;"/>
   </g>
   <g id="line2d_56">
    <path clip-path="url(#pca6e7ef18e)" d="M 237.020616 101.298453 
L 273.085083 109.162509 
L 309.783349 117.164768 
L 347.13227 125.308906 
L 385.149303 133.59873 
L 423.852538 142.038183 
" style="fill:none;stroke:#000000;stroke-linecap:square;stroke-width:2;"/>
   </g>
   <g id="line2d_57">
    <path clip-path="url(#pca6e7ef18e)" d="M 419.402434 370.277527 
L 395.448029 385.146731 
L 370.877889 400.398139 
L 345.667965 416.04668 
L 319.792938 432.10807 
L 293.226135 448.598865 
" style="fill:none;stroke:#000000;stroke-linecap:square;stroke-width:2;"/>
   </g>
   <g id="line2d_58">
    <path clip-path="url(#pca6e7ef18e)" d="M 395.448029 385.146731 
L 396.193398 340.035963 
L 396.947268 294.410715 
L 397.709785 248.262135 
L 398.481099 201.581167 
L 399.261363 154.358544 
" style="fill:none;stroke:#000000;stroke-linecap:square;stroke-width:0.3;"/>
   </g>
   <g id="line2d_59">
    <path clip-path="url(#pca6e7ef18e)" d="M 211.171592 112.57153 
L 247.462354 120.634077 
L 284.398996 128.840116 
L 321.998917 137.193513 
L 360.280143 145.698271 
L 399.261363 154.358544 
" style="fill:none;stroke:#000000;stroke-linecap:square;stroke-width:0.3;"/>
   </g>
   <g id="line2d_60">
    <path clip-path="url(#pca6e7ef18e)" d="M 420.272523 325.651921 
L 396.193398 340.035963 
L 371.491778 354.791862 
L 346.143207 369.934227 
L 320.121932 385.478442 
L 293.400815 401.44072 
" style="fill:none;stroke:#000000;stroke-linecap:square;stroke-width:0.3;"/>
   </g>
   <g id="line2d_61">
    <path clip-path="url(#pca6e7ef18e)" d="M 370.877889 400.398139 
L 371.491778 354.791862 
L 372.112759 308.658692 
L 372.740955 261.989444 
L 373.376495 214.77472 
L 374.019506 167.004901 
" style="fill:none;stroke:#000000;stroke-linecap:square;stroke-width:0.3;"/>
   </g>
   <g id="line2d_62">
    <path clip-path="url(#pca6e7ef18e)" d="M 184.668881 124.129688 
L 221.185872 132.398337 
L 258.361136 140.81604 
L 296.212634 149.386865 
L 334.758987 158.115028 
L 374.019506 167.004901 
" style="fill:none;stroke:#000000;stroke-linecap:square;stroke-width:0.3;"/>
   </g>
   <g id="line2d_63">
    <path clip-path="url(#pca6e7ef18e)" d="M 421.15241 280.523817 
L 396.947268 294.410715 
L 372.112759 308.658692 
L 346.624011 323.282016 
L 320.454829 338.295717 
L 293.577595 353.71564 
" style="fill:none;stroke:#000000;stroke-linecap:square;stroke-width:0.3;"/>
   </g>
   <g id="line2d_64">
    <path clip-path="url(#pca6e7ef18e)" d="M 345.667965 416.04668 
L 346.143207 369.934227 
L 346.624011 323.282016 
L 347.110477 276.080513 
L 347.602704 228.319961 
L 348.100796 179.990367 
" style="fill:none;stroke:#000000;stroke-linecap:square;stroke-width:0.3;"/>
   </g>
   <g id="line2d_65">
    <path clip-path="url(#pca6e7ef18e)" d="M 157.487371 135.983879 
L 194.230296 144.466634 
L 231.644204 153.104298 
L 269.747643 161.901152 
L 308.559853 170.861639 
L 348.100796 179.990367 
" style="fill:none;stroke:#000000;stroke-linecap:square;stroke-width:0.3;"/>
   </g>
   <g id="line2d_66">
    <path clip-path="url(#pca6e7ef18e)" d="M 422.042261 234.884679 
L 397.709785 248.262135 
L 372.740955 261.989444 
L 347.110477 276.080513 
L 320.791697 290.549995 
L 293.756512 305.413341 
" style="fill:none;stroke:#000000;stroke-linecap:square;stroke-width:0.3;"/>
   </g>
   <g id="line2d_67">
    <path clip-path="url(#pca6e7ef18e)" d="M 319.792938 432.10807 
L 320.121932 385.478442 
L 320.454829 338.295717 
L 320.791697 290.549995 
L 321.132609 242.231138 
L 321.477639 193.328765 
" style="fill:none;stroke:#000000;stroke-linecap:square;stroke-width:0.3;"/>
   </g>
   <g id="line2d_68">
    <path clip-path="url(#pca6e7ef18e)" d="M 129.600645 148.145623 
L 166.568955 156.850911 
L 204.221283 165.717271 
L 242.57679 174.749215 
L 281.655362 183.951426 
L 321.477639 193.328765 
" style="fill:none;stroke:#000000;stroke-linecap:square;stroke-width:0.3;"/>
   </g>
   <g id="line2d_69">
    <path clip-path="url(#pca6e7ef18e)" d="M 422.942245 188.725778 
L 398.481099 201.581167 
L 373.376495 214.77472 
L 347.602704 228.319961 
L 321.132609 242.231138 
L 293.937607 256.523287 
" style="fill:none;stroke:#000000;stroke-linecap:square;stroke-width:0.3;"/>
   </g>
   <g id="line2d_70">
    <path clip-path="url(#pca6e7ef18e)" d="M 293.226135 448.598865 
L 293.400815 401.44072 
L 293.577595 353.71564 
L 293.756512 305.413341 
L 293.937607 256.523287 
L 294.120919 207.034684 
" style="fill:none;stroke:#000000;stroke-linecap:square;stroke-width:2;"/>
   </g>
   <g id="line2d_71">
    <path clip-path="url(#pca6e7ef18e)" d="M 100.980896 160.627048 
L 138.173761 169.56374 
L 176.064014 178.668001 
L 214.671455 187.944587 
L 254.01664 197.398438 
L 294.120919 207.034684 
" style="fill:none;stroke:#000000;stroke-linecap:square;stroke-width:2;"/>
   </g>
   <g id="line2d_72">
    <path clip-path="url(#pca6e7ef18e)" d="M 423.852538 142.038183 
L 399.261363 154.358544 
L 374.019506 167.004901 
L 348.100796 179.990367 
L 321.477639 193.328765 
L 294.120919 207.034684 
" style="fill:none;stroke:#000000;stroke-linecap:square;stroke-width:2;"/>
   </g>
  </g>
 </g>
 <defs>
  <clipPath id="pca6e7ef18e">
   <rect height="543.6" width="507.272727" x="3.5" y="3.5"/>
  </clipPath>
 </defs>
</svg>
